# Static oscilloscope graticule: 10 time divisions, 8 voltage divisions.
o OscilloscopeGrid10x8
v -0.5000000 -0.5000000 0.0000000
v -0.4987500 -0.5000000 0.0000000
v -0.4987500 0.5000000 0.0000000
v -0.5000000 0.5000000 0.0000000
v -0.4012500 -0.5000000 0.0000000
v -0.3987500 -0.5000000 0.0000000
v -0.3987500 0.5000000 0.0000000
v -0.4012500 0.5000000 0.0000000
v -0.3012500 -0.5000000 0.0000000
v -0.2987500 -0.5000000 0.0000000
v -0.2987500 0.5000000 0.0000000
v -0.3012500 0.5000000 0.0000000
v -0.2012500 -0.5000000 0.0000000
v -0.1987500 -0.5000000 0.0000000
v -0.1987500 0.5000000 0.0000000
v -0.2012500 0.5000000 0.0000000
v -0.1012500 -0.5000000 0.0000000
v -0.0987500 -0.5000000 0.0000000
v -0.0987500 0.5000000 0.0000000
v -0.1012500 0.5000000 0.0000000
v -0.0020000 -0.5000000 0.0000000
v 0.0020000 -0.5000000 0.0000000
v 0.0020000 0.5000000 0.0000000
v -0.0020000 0.5000000 0.0000000
v 0.0987500 -0.5000000 0.0000000
v 0.1012500 -0.5000000 0.0000000
v 0.1012500 0.5000000 0.0000000
v 0.0987500 0.5000000 0.0000000
v 0.1987500 -0.5000000 0.0000000
v 0.2012500 -0.5000000 0.0000000
v 0.2012500 0.5000000 0.0000000
v 0.1987500 0.5000000 0.0000000
v 0.2987500 -0.5000000 0.0000000
v 0.3012500 -0.5000000 0.0000000
v 0.3012500 0.5000000 0.0000000
v 0.2987500 0.5000000 0.0000000
v 0.3987500 -0.5000000 0.0000000
v 0.4012500 -0.5000000 0.0000000
v 0.4012500 0.5000000 0.0000000
v 0.3987500 0.5000000 0.0000000
v 0.4987500 -0.5000000 0.0000000
v 0.5000000 -0.5000000 0.0000000
v 0.5000000 0.5000000 0.0000000
v 0.4987500 0.5000000 0.0000000
v -0.5000000 -0.5000000 0.0000000
v 0.5000000 -0.5000000 0.0000000
v 0.5000000 -0.4987500 0.0000000
v -0.5000000 -0.4987500 0.0000000
v -0.5000000 -0.3762500 0.0000000
v 0.5000000 -0.3762500 0.0000000
v 0.5000000 -0.3737500 0.0000000
v -0.5000000 -0.3737500 0.0000000
v -0.5000000 -0.2512500 0.0000000
v 0.5000000 -0.2512500 0.0000000
v 0.5000000 -0.2487500 0.0000000
v -0.5000000 -0.2487500 0.0000000
v -0.5000000 -0.1262500 0.0000000
v 0.5000000 -0.1262500 0.0000000
v 0.5000000 -0.1237500 0.0000000
v -0.5000000 -0.1237500 0.0000000
v -0.5000000 -0.0020000 0.0000000
v 0.5000000 -0.0020000 0.0000000
v 0.5000000 0.0020000 0.0000000
v -0.5000000 0.0020000 0.0000000
v -0.5000000 0.1237500 0.0000000
v 0.5000000 0.1237500 0.0000000
v 0.5000000 0.1262500 0.0000000
v -0.5000000 0.1262500 0.0000000
v -0.5000000 0.2487500 0.0000000
v 0.5000000 0.2487500 0.0000000
v 0.5000000 0.2512500 0.0000000
v -0.5000000 0.2512500 0.0000000
v -0.5000000 0.3737500 0.0000000
v 0.5000000 0.3737500 0.0000000
v 0.5000000 0.3762500 0.0000000
v -0.5000000 0.3762500 0.0000000
v -0.5000000 0.4987500 0.0000000
v 0.5000000 0.4987500 0.0000000
v 0.5000000 0.5000000 0.0000000
v -0.5000000 0.5000000 0.0000000
f 1 3 2
f 1 4 3
f 1 2 3
f 1 3 4
f 5 7 6
f 5 8 7
f 5 6 7
f 5 7 8
f 9 11 10
f 9 12 11
f 9 10 11
f 9 11 12
f 13 15 14
f 13 16 15
f 13 14 15
f 13 15 16
f 17 19 18
f 17 20 19
f 17 18 19
f 17 19 20
f 21 23 22
f 21 24 23
f 21 22 23
f 21 23 24
f 25 27 26
f 25 28 27
f 25 26 27
f 25 27 28
f 29 31 30
f 29 32 31
f 29 30 31
f 29 31 32
f 33 35 34
f 33 36 35
f 33 34 35
f 33 35 36
f 37 39 38
f 37 40 39
f 37 38 39
f 37 39 40
f 41 43 42
f 41 44 43
f 41 42 43
f 41 43 44
f 45 47 46
f 45 48 47
f 45 46 47
f 45 47 48
f 49 51 50
f 49 52 51
f 49 50 51
f 49 51 52
f 53 55 54
f 53 56 55
f 53 54 55
f 53 55 56
f 57 59 58
f 57 60 59
f 57 58 59
f 57 59 60
f 61 63 62
f 61 64 63
f 61 62 63
f 61 63 64
f 65 67 66
f 65 68 67
f 65 66 67
f 65 67 68
f 69 71 70
f 69 72 71
f 69 70 71
f 69 71 72
f 73 75 74
f 73 76 75
f 73 74 75
f 73 75 76
f 77 79 78
f 77 80 79
f 77 78 79
f 77 79 80
